<svg width="233" height="353" viewBox="0 0 233 353" fill="none" xmlns="http://www.w3.org/2000/svg"><path d="M184.738 0H176.934C197.176 7.10759 208.438 24.8646 208.438 47.7962V182.012C216.073 173.248 232.966 144.265 232.966 126.988V48.2284C232.978 21.6349 211.331 0 184.738 0Z" fill="#0E4EF5"/><path d="M152.249 144.721L79.0001 50.4976H51.4102V191.617H80.717V99.7465L152.033 191.617H181.556V50.4976H152.249V144.721Z" fill="#0E4EF5"/><path d="M34.3494 234.166C26.9776 221.872 24.5404 205.436 24.5404 190.14V50.5456C24.5404 45.539 26.1132 40.8927 28.7785 37.0627C13.2667 43.3059 0 57.0168 0 73.4051V71.0999V181.7C0 196.659 6.67537 210.646 18.3453 220.023L34.3374 234.166" fill="#0E4EF5"/><path d="M164.099 0.348176C162.226 0.120061 160.317 0 158.372 0H48.2284C21.6349 0 0 21.6349 0 48.2284V55.2279C6.15911 34.0012 24.2643 24.5284 46.5595 24.5284H182.456C187.223 24.5284 191.665 25.9571 195.399 28.3944C189.552 14.6954 178.062 2.94149 164.099 0.348176Z" fill="#0E4EF5"/><path d="M33.905 201.03C34.4693 215.569 37.1347 228.62 48.3964 243.735L57.3769 254.565C74.4975 269.74 116.483 306.971 116.483 306.971L214.62 220.023C226.302 210.646 232.978 196.671 232.978 181.7V157.592C226.23 172.887 215.173 185.626 203.947 196.635C200.933 199.685 197.74 202.554 194.354 205.196L116.483 274.183L34.3973 201.462L33.905 201.018V201.03Z" fill="#0E4EF5"/><path d="M116.495 328.198C89.6014 328.198 67.7983 333.673 67.7983 340.42C67.7983 347.167 89.6014 352.642 116.495 352.642C143.389 352.642 165.192 347.167 165.192 340.42C165.192 333.673 143.389 328.198 116.495 328.198Z" fill="#0E4EF5"/></svg>