<svg width="1142" height="453" viewBox="0 0 1142 453" fill="none" xmlns="http://www.w3.org/2000/svg">
<path d="M543.175 352.256H491.558L374.688 175.674V352.256H323.071V94.5543H374.688L491.558 271.508V94.5543H543.175V352.244V352.256Z" fill="#FFFFFF"/>
<path d="M597.551 115.014C591.53 109.245 588.52 102.05 588.52 93.4509C588.52 84.8521 591.53 77.6684 597.551 71.8878C603.571 66.1193 611.127 63.229 620.229 63.229C629.332 63.229 636.875 66.1193 642.896 71.8878C648.916 77.6684 651.926 84.8521 651.926 93.4509C651.926 102.05 648.916 109.245 642.896 115.014C636.875 120.795 629.32 123.673 620.229 123.673C611.139 123.673 603.571 120.783 597.551 115.014ZM645.654 148.018V352.256H594.049V148.018H645.654Z" fill="#FFFFFF"/>
<path d="M816.72 153.727C828.269 159.747 837.359 167.555 844.003 177.137V148.006H895.98V353.719C895.98 372.644 892.167 389.542 884.551 404.413C876.924 419.284 865.507 431.085 850.264 439.804C835.021 448.523 816.588 452.888 794.965 452.888C765.954 452.888 742.184 446.124 723.632 432.608C705.067 419.092 694.561 400.659 692.114 377.309H743.36C746.058 386.652 751.899 394.087 760.869 399.616C769.84 405.145 780.717 407.915 793.49 407.915C808.481 407.915 820.641 403.43 829.984 394.459C839.314 385.488 843.992 371.912 843.992 353.719V322.022C837.36 331.605 828.197 339.592 816.528 345.984C804.847 352.376 791.511 355.566 776.532 355.566C759.322 355.566 743.6 351.141 729.34 342.302C715.081 333.451 703.843 320.979 695.604 304.885C687.365 288.79 683.252 270.297 683.252 249.394C683.252 228.49 687.365 210.441 695.604 194.467C703.831 178.492 715.009 166.212 729.148 157.601C743.276 149.002 759.07 144.696 776.52 144.696C791.751 144.696 805.147 147.707 816.708 153.727H816.72ZM836.616 217.877C831.699 208.906 825.067 202.022 816.708 197.237C808.349 192.44 799.378 190.053 789.796 190.053C780.214 190.053 771.363 192.392 763.256 197.057C755.149 201.734 748.565 208.546 743.528 217.517C738.491 226.487 735.972 237.125 735.972 249.406C735.972 261.686 738.491 272.444 743.528 281.666C748.565 290.877 755.197 297.953 763.436 302.858C771.675 307.775 780.454 310.233 789.796 310.233C799.138 310.233 808.349 307.835 816.708 303.05C825.055 298.253 831.699 291.381 836.616 282.41C841.533 273.439 843.992 262.682 843.992 250.149C843.992 237.617 841.533 226.859 836.616 217.889V217.877Z" fill="#FFFFFF"/>
<path d="M1102.8 155.202C1114.84 161.966 1124.24 171.92 1131 185.064C1137.76 198.22 1141.14 214.003 1141.14 232.436V352.244H1089.52V239.44C1089.52 223.213 1085.47 210.753 1077.36 202.022C1069.25 193.303 1058.18 188.938 1044.18 188.938C1030.17 188.938 1018.68 193.303 1010.44 202.022C1002.2 210.753 998.087 223.213 998.087 239.44V352.244H946.482V79.4434H998.087V173.455C1004.72 164.604 1013.57 157.673 1024.63 152.624C1035.68 147.587 1047.98 145.068 1061.49 145.068C1076.98 145.068 1090.74 148.45 1102.78 155.202H1102.8Z" fill="#FFFFFF"/>
<path d="M184.738 0H176.934C197.176 7.10759 208.438 24.8646 208.438 47.7962V182.012C216.073 173.248 232.966 144.265 232.966 126.988V48.2284C232.978 21.6349 211.331 0 184.738 0Z" fill="#FFFFFF"/>
<path d="M152.249 144.721L79.0001 50.4976H51.4102V191.617H80.717V99.7465L152.033 191.617H181.556V50.4976H152.249V144.721Z" fill="#FFFFFF"/>
<path d="M34.3494 234.166C26.9776 221.872 24.5404 205.436 24.5404 190.14V50.5456C24.5404 45.539 26.1132 40.8927 28.7785 37.0627C13.2667 43.3059 0 57.0168 0 73.4051V71.0999V181.7C0 196.659 6.67537 210.646 18.3453 220.023L34.3374 234.166" fill="#FFFFFF"/>
<path d="M164.099 0.348176C162.226 0.120061 160.317 0 158.372 0H48.2284C21.6349 0 0 21.6349 0 48.2284V55.2279C6.15911 34.0012 24.2643 24.5284 46.5595 24.5284H182.456C187.223 24.5284 191.665 25.9571 195.399 28.3944C189.552 14.6954 178.062 2.94149 164.099 0.348176Z" fill="#FFFFFF"/>
<path d="M33.905 201.03C34.4693 215.569 37.1347 228.62 48.3964 243.735L57.3769 254.565C74.4975 269.74 116.483 306.971 116.483 306.971L214.62 220.023C226.302 210.646 232.978 196.671 232.978 181.7V157.592C226.23 172.887 215.173 185.626 203.947 196.635C200.933 199.685 197.74 202.554 194.354 205.196L116.483 274.183L34.3973 201.462L33.905 201.018V201.03Z" fill="#FFFFFF"/>
<path d="M116.495 328.198C89.6014 328.198 67.7983 333.673 67.7983 340.42C67.7983 347.167 89.6014 352.642 116.495 352.642C143.389 352.642 165.192 347.167 165.192 340.42C165.192 333.673 143.389 328.198 116.495 328.198Z" fill="#FFFFFF"/>
</svg>
