<?xml version="1.0" encoding="utf-8"?>
<!-- Generator: Adobe Illustrator 27.0.0, SVG Export Plug-In . SVG Version: 6.00 Build 0)  -->
<svg version="1.1" id="Layer_1" xmlns="http://www.w3.org/2000/svg" xmlns:xlink="http://www.w3.org/1999/xlink" x="0px" y="0px"
	 viewBox="0 0 360 360" style="enable-background:new 0 0 360 360;" xml:space="preserve">
<style type="text/css">
	.st0{fill:#6226E9;}
	.st1{fill:#0E4EF5;}
	.st2{fill:#41EFF9;}
	.st3{fill:#FFFFFF;}
	.st4{fill:#EC1977;}
</style>
<polygon points="-512,281.4 -511.7,281.1 -511.3,281.4 "/>
<g>
	<g>
		<path class="st0" d="M242.8,82.1c-0.2-4-1.7-7.8-4.1-10.7c-0.4-0.5-0.8-0.9-1.2-1.3c-3.3-3.3-7.8-5.3-12.9-5.3h-94.1
			c-0.3,0-0.6,0-0.9,0h-0.1c-7.9,0.1-15.3,2.5-21.4,6.6c-10.5,7-17.5,19.1-17.5,32.7V71.4C90.7,56.3,103,44,118.2,44h86.6
			c17,0.5,31.4,11.9,36.2,27.5C242.1,74.8,242.7,78.4,242.8,82.1z"/>
		<path class="st1" d="M264.5,143.9v43c0,6.9-2.8,13.4-7.7,18.2l-79.2,76.4l-50.7-48.9c0,0,0,0,0,0l-3.6-5.2
			c-7.1-10.1-10.9-22.2-10.9-34.5v-12c0.1,5.2,2.2,10.1,6,13.7l59.2,56.7l-0.3,0.2h0.5l-0.3-0.2l59.3-56.8l7.2-6.9
			c8.2-7.9,14-17.9,16.8-28.9L264.5,143.9z"/>
		<polygon class="st2" points="177.3,251.6 177.6,251.4 177.9,251.6 		"/>
		<path class="st2" d="M242.8,83.3v2.2h0V83C242.8,83.1,242.8,83.2,242.8,83.3z"/>
		<polygon class="st2" points="177.9,251.6 177.3,251.6 177.6,251.4 		"/>
		<path class="st2" d="M123.3,227.4l3.6,5.2c0,0,0,0,0,0l-28.5-27.5c-4.9-4.8-7.7-11.3-7.7-18.2v-82.7c0-13.6,6.9-25.7,17.5-32.7
			c6.1-4.1,13.5-6.5,21.4-6.6c-5.3,0.3-9.9,2.8-13.1,6.6c-2.6,3.1-4.1,7.2-4.1,11.5v97.6c0,0.1,0,0.2,0,0.3v12
			C112.4,205.2,116.2,217.3,123.3,227.4z"/>
		<path class="st3" d="M242.8,83v97.6c0,5.3-2.1,10.3-6,14l-59.3,56.8l-59.2-56.7c-3.8-3.6-5.9-8.5-6-13.7c0-0.1,0-97.9,0-97.9
			c0-4.4,1.5-8.4,4.1-11.5c3.1-3.8,7.8-6.3,13.1-6.6h0.1c0.3,0,95,0,95,0c5,0,9.6,2,12.9,5.3c0.4,0.4,0.8,0.9,1.2,1.3
			c2.4,2.9,3.9,6.6,4.1,10.7C242.8,82.4,242.8,82.7,242.8,83z"/>
		<path class="st4" d="M264.5,71.4v72.5l-3.7,14.8c-2.8,11-8.6,21-16.8,28.9l-7.2,6.9c3.8-3.7,6-8.7,6-14V85.5h0v-2.2
			c0-0.1,0-0.2,0-0.3c0-0.3,0-0.6,0-0.9c-0.1-3.7-0.7-7.3-1.8-10.7c-4.9-15.6-19.2-26.9-36.2-27.5H237c7.6,0,14.5,3.1,19.4,8
			C261.4,57,264.5,63.8,264.5,71.4z"/>
	</g>
	<g>
		<polygon class="st1" points="199.3,86.5 199.3,143.5 154.9,86.5 138.2,86.5 138.2,171.9 155.9,171.9 155.9,116.3 199.1,171.9 
			217,171.9 217,86.5 		"/>
		<ellipse class="st1" cx="177.5" cy="308.4" rx="33.6" ry="8.4"/>
		<path class="st1" d="M171.2,214.8c3.5,3.5,9.1,3.5,12.6,0c3.5-3.5,3.5-9.1,0-12.6c-3.5-3.5-9.1-3.5-12.6,0c0,0,0,0,0,0
			C167.7,205.7,167.7,211.3,171.2,214.8C171.1,214.8,171.2,214.8,171.2,214.8z"/>
	</g>
</g>
</svg>
