<svg width="1140" height="452" viewBox="0 0 1140 452" fill="none" xmlns="http://www.w3.org/2000/svg">
<path d="M542.316 351.477H490.755L374.011 175.086V351.477H322.45V94.0542H374.011L490.755 270.817V94.0542H542.316V351.465V351.477Z" fill="#0E4EF5"/>
<path d="M596.633 114.492C590.619 108.729 587.612 101.541 587.612 92.9519C587.612 84.3624 590.619 77.1864 596.633 71.4122C602.647 65.6498 610.194 62.7627 619.287 62.7627C628.38 62.7627 635.915 65.6498 641.929 71.4122C647.943 77.1864 650.95 84.3624 650.95 92.9519C650.95 101.541 647.943 108.729 641.929 114.492C635.915 120.266 628.368 123.141 619.287 123.141C610.206 123.141 602.647 120.254 596.633 114.492ZM644.684 147.46V351.477H593.135V147.46H644.684Z" fill="#0E4EF5"/>
<path d="M815.553 153.163C827.089 159.177 836.17 166.976 842.807 176.548V147.449H894.728V352.939C894.728 371.843 890.918 388.723 883.311 403.578C875.692 418.433 864.287 430.221 849.061 438.93C833.834 447.64 815.421 452 793.821 452C764.842 452 741.098 445.244 722.565 431.743C704.02 418.241 693.526 399.828 691.082 376.503H742.272C744.968 385.836 750.802 393.263 759.763 398.786C768.724 404.309 779.589 407.076 792.348 407.076C807.323 407.076 819.47 402.595 828.803 393.635C838.123 384.674 842.795 371.112 842.795 352.939V321.276C836.17 330.848 827.018 338.827 815.361 345.212C803.693 351.597 790.371 354.784 775.408 354.784C758.217 354.784 742.512 350.363 728.268 341.534C714.024 332.693 702.798 320.234 694.568 304.157C686.338 288.08 682.229 269.607 682.229 248.726C682.229 227.845 686.338 209.816 694.568 193.859C702.786 177.901 713.952 165.634 728.076 157.032C742.188 148.443 757.966 144.142 775.396 144.142C790.611 144.142 803.992 147.149 815.541 153.163H815.553ZM835.439 217.243C830.528 208.282 823.903 201.406 815.553 196.626C807.203 191.834 798.242 189.45 788.67 189.45C779.098 189.45 770.257 191.786 762.159 196.446C754.06 201.118 747.483 207.923 742.452 216.884C737.42 225.845 734.904 236.471 734.904 248.738C734.904 261.006 737.42 271.752 742.452 280.964C747.483 290.165 754.108 297.233 762.338 302.132C770.568 307.044 779.338 309.5 788.67 309.5C798.002 309.5 807.203 307.104 815.553 302.324C823.891 297.532 830.528 290.668 835.439 281.707C840.351 272.746 842.807 262 842.807 249.481C842.807 236.962 840.351 226.216 835.439 217.255V217.243Z" fill="#0E4EF5"/>
<path d="M1101.32 154.636C1113.35 161.393 1122.74 171.336 1129.5 184.466C1136.24 197.608 1139.62 213.373 1139.62 231.787V351.465H1088.06V238.783C1088.06 222.574 1084.01 210.127 1075.91 201.406C1067.81 192.696 1056.75 188.336 1042.76 188.336C1028.77 188.336 1017.29 192.696 1009.06 201.406C1000.83 210.127 996.724 222.574 996.724 238.783V351.465H945.175V78.9595H996.724V172.87C1003.35 164.028 1012.19 157.104 1023.24 152.061C1034.28 147.029 1046.56 144.513 1060.06 144.513C1075.53 144.513 1089.28 147.892 1101.31 154.636H1101.32Z" fill="#0E4EF5"/>
<path d="M184.106 0H160.099C186.406 0 207.731 21.3241 207.731 47.6319V181.088C207.731 187.449 205.43 193.463 201.154 198.015C219.543 180.429 231.271 155.93 232.181 128.664V48.0632C232.181 21.5637 210.618 0 184.106 0Z" fill="#EC1977"/>
<path d="M207.731 47.6319C207.491 34.8254 196.973 24.4509 184.106 24.4509H46.41C20.7851 24.4509 0 45.2359 0 70.8609V48.0752C0 21.5637 21.5637 0 48.0752 0H160.111C186.419 0 207.743 21.3241 207.743 47.6319H207.731Z" fill="#6226E9"/>
<path d="M50.0758 247.384L18.2932 219.268C6.6608 209.923 0 195.991 0 181.076V70.8611C0 45.2362 20.7851 24.4512 46.41 24.4512H47.5361C34.7775 24.7387 24.4509 35.257 24.4509 48.0755V181.088C24.4509 182.118 24.4988 183.136 24.6426 184.167C24.4988 185.928 24.4509 187.689 24.4509 189.498C24.4509 212.427 34.3343 233.068 50.0758 247.396V247.384Z" fill="#41EFF9"/>
<path d="M151.725 144.225L78.7196 50.3271H51.2378V190.971H80.4447V99.4086L151.509 190.971H180.932V50.3271H151.725V144.225Z" fill="#0E4EF5"/>
<path d="M232.182 128.652V181.076C232.182 195.991 225.533 209.923 213.888 219.267L116.085 305.918C116.085 305.918 50.9504 248.163 50.0639 247.384C34.3223 233.056 24.439 212.415 24.439 189.486C24.439 187.677 24.4869 185.916 24.6306 184.155C25.4093 190.516 28.6918 196.278 33.7713 200.339L34.2624 200.783L116.073 273.249L193.678 204.496C216.32 186.742 231.139 159.464 232.158 128.652H232.182Z" fill="#0E4EF5"/>
<path d="M116.085 327.122C89.2861 327.122 67.5547 332.573 67.5547 339.294C67.5547 346.014 89.2861 351.465 116.085 351.465C142.884 351.465 164.615 346.014 164.615 339.294C164.615 332.573 142.884 327.122 116.085 327.122Z" fill="#0E4EF5"/>
</svg>
