<?xml version="1.0" encoding="utf-8"?>
<!-- Generator: Adobe Illustrator 27.0.0, SVG Export Plug-In . SVG Version: 6.00 Build 0)  -->
<svg version="1.1" id="Layer_1" xmlns="http://www.w3.org/2000/svg" xmlns:xlink="http://www.w3.org/1999/xlink" x="0px" y="0px"
	 viewBox="0 0 360 360" style="enable-background:new 0 0 360 360;" xml:space="preserve">
<style type="text/css">
	.st0{fill:#6226E9;}
	.st1{fill:#0E4EF5;}
	.st2{fill:#41EFF9;}
	.st3{fill:#FFFFFF;}
	.st4{fill:#EC1977;}
</style>
<polygon points="-512,281.4 -511.7,281.1 -511.3,281.4 "/>
<g>
	<g>
		<g>
			<path class="st0" d="M100.3,134.3c-0.1-1.2-0.5-2.3-1.2-3.2c-0.1-0.1-0.2-0.3-0.4-0.4c-1-1-2.3-1.6-3.8-1.6H67.1
				c-0.1,0-0.2,0-0.3,0h0c-2.3,0-4.5,0.7-6.3,2c-3.1,2.1-5.2,5.6-5.2,9.7v-9.7c0-4.5,3.6-8.1,8.1-8.1H89c5,0.2,9.3,3.5,10.7,8.1
				C100.1,132.2,100.3,133.2,100.3,134.3z"/>
			<path class="st1" d="M106.7,152.6v12.7c0,2-0.8,4-2.3,5.4L81,193.2l-15-14.5c0,0,0,0,0,0l-1.1-1.5c-2.1-3-3.2-6.6-3.2-10.2v-3.5
				c0,1.5,0.7,3,1.8,4.1L81,184.3l-0.1,0.1h0.2l-0.1-0.1l17.5-16.8l2.1-2c2.4-2.3,4.1-5.3,4.9-8.5L106.7,152.6z"/>
			<polygon class="st2" points="80.9,184.4 81,184.3 81.1,184.4 			"/>
			<path class="st2" d="M100.3,134.7v0.7h0L100.3,134.7C100.3,134.6,100.3,134.6,100.3,134.7z"/>
			<polygon class="st2" points="81.1,184.4 80.9,184.4 81,184.3 			"/>
			<path class="st2" d="M65,177.3l1.1,1.5c0,0,0,0,0,0l-8.4-8.1c-1.5-1.4-2.3-3.3-2.3-5.4v-24.4c0-4,2.1-7.6,5.2-9.7
				c1.8-1.2,4-1.9,6.3-2c-1.6,0.1-2.9,0.8-3.9,2c-0.8,0.9-1.2,2.1-1.2,3.4v28.8c0,0,0,0.1,0,0.1v3.5C61.8,170.7,62.9,174.3,65,177.3
				z"/>
			<path class="st3" d="M100.3,134.6v28.8c0,1.6-0.6,3.1-1.8,4.1L81,184.3l-17.5-16.8c-1.1-1.1-1.7-2.5-1.8-4.1c0,0,0-28.9,0-28.9
				c0-1.3,0.5-2.5,1.2-3.4c0.9-1.1,2.3-1.9,3.9-2h0c0.1,0,28.1,0,28.1,0c1.5,0,2.8,0.6,3.8,1.6c0.1,0.1,0.2,0.3,0.4,0.4
				c0.7,0.9,1.2,2,1.2,3.2C100.3,134.4,100.3,134.5,100.3,134.6z"/>
			<path class="st4" d="M106.7,131.2v21.4l-1.1,4.4c-0.8,3.3-2.5,6.2-4.9,8.5l-2.1,2c1.1-1.1,1.8-2.6,1.8-4.1v-28.1h0v-0.7
				c0,0,0-0.1,0-0.1c0-0.1,0-0.2,0-0.3c0-1.1-0.2-2.2-0.5-3.2c-1.4-4.6-5.7-8-10.7-8.1h9.5c2.2,0,4.3,0.9,5.7,2.4
				C105.8,126.9,106.7,128.9,106.7,131.2z"/>
		</g>
		<g>
			<polygon class="st1" points="87.4,135.6 87.4,152.5 74.3,135.6 69.4,135.6 69.4,160.9 74.6,160.9 74.6,144.4 87.4,160.9 
				92.7,160.9 92.7,135.6 			"/>
			<ellipse class="st1" cx="81" cy="201.2" rx="9.9" ry="2.5"/>
			<path class="st1" d="M79.1,173.5c1,1,2.7,1,3.7,0c1-1,1-2.7,0-3.7c-1-1-2.7-1-3.7,0c0,0,0,0,0,0
				C78.1,170.8,78.1,172.5,79.1,173.5C79.1,173.5,79.1,173.5,79.1,173.5z"/>
		</g>
	</g>
	<g>
		<path class="st1" d="M170.7,203.8h-11.8L132,163.3v40.5h-11.8v-59.1H132l26.8,40.6v-40.6h11.8V203.8z"/>
		<path class="st1" d="M183.2,149.4c-1.4-1.3-2.1-3-2.1-4.9c0-2,0.7-3.6,2.1-4.9c1.4-1.3,3.1-2,5.2-2c2.1,0,3.8,0.7,5.2,2
			c1.4,1.3,2.1,3,2.1,4.9c0,2-0.7,3.6-2.1,4.9c-1.4,1.3-3.1,2-5.2,2C186.3,151.3,184.5,150.7,183.2,149.4z M194.2,156.9v46.9h-11.8
			v-46.9H194.2z"/>
		<path class="st1" d="M233.4,158.2c2.6,1.4,4.7,3.2,6.3,5.4v-6.7h11.9v47.2c0,4.3-0.9,8.2-2.6,11.6c-1.7,3.4-4.4,6.1-7.9,8.1
			c-3.5,2-7.7,3-12.7,3c-6.7,0-12.1-1.6-16.4-4.7c-4.3-3.1-6.7-7.3-7.2-12.7h11.8c0.6,2.1,2,3.8,4,5.1c2.1,1.3,4.6,1.9,7.5,1.9
			c3.4,0,6.2-1,8.4-3.1c2.1-2.1,3.2-5.2,3.2-9.3v-7.3c-1.5,2.2-3.6,4-6.3,5.5c-2.7,1.5-5.7,2.2-9.2,2.2c-3.9,0-7.6-1-10.8-3
			c-3.3-2-5.9-4.9-7.7-8.6c-1.9-3.7-2.8-7.9-2.8-12.7c0-4.7,0.9-8.9,2.8-12.6c1.9-3.7,4.5-6.5,7.7-8.5c3.2-2,6.9-3,10.9-3
			C227.7,156.2,230.8,156.9,233.4,158.2z M238,173c-1.1-2.1-2.7-3.6-4.6-4.7c-1.9-1.1-4-1.6-6.2-1.6s-4.2,0.5-6.1,1.6
			c-1.9,1.1-3.4,2.6-4.5,4.7c-1.2,2.1-1.7,4.5-1.7,7.3c0,2.8,0.6,5.3,1.7,7.4c1.2,2.1,2.7,3.7,4.6,4.9c1.9,1.1,3.9,1.7,6,1.7
			c2.2,0,4.3-0.5,6.2-1.6c1.9-1.1,3.4-2.7,4.6-4.7c1.1-2.1,1.7-4.5,1.7-7.4C239.7,177.5,239.1,175,238,173z"/>
		<path class="st1" d="M299.1,158.6c2.8,1.6,4.9,3.8,6.5,6.9c1.6,3,2.3,6.6,2.3,10.9v27.5H296v-25.9c0-3.7-0.9-6.6-2.8-8.6
			c-1.9-2-4.4-3-7.6-3c-3.3,0-5.9,1-7.7,3c-1.9,2-2.8,4.9-2.8,8.6v25.9h-11.8v-62.6h11.8v21.6c1.5-2,3.6-3.6,6.1-4.8
			c2.5-1.2,5.4-1.7,8.5-1.7C293.2,156.3,296.3,157,299.1,158.6z"/>
	</g>
</g>
</svg>
